<svg width="60" height="37" viewBox="0 0 60 37" fill="none" xmlns="http://www.w3.org/2000/svg">
<path d="M60 16.8749V13.1251H54.0602C53.7891 12.2518 53.3429 11.4094 52.7195 10.6075L57.8548 9.12413L54.104 5.87596L48.9769 7.35713C47.8786 6.67961 46.6482 6.06077 45.2862 5.51321L48.2514 2.94806L41.7553 1.07298L38.789 3.64202C37.1851 3.33065 35.5005 3.10547 33.7501 2.97174V0H26.2503V2.97199C24.5071 3.10547 22.8225 3.33269 21.218 3.64202L18.2522 1.07298L11.7553 2.94806L14.7141 5.51352C13.3593 6.06089 12.1218 6.67986 11.0304 7.35713L5.89612 5.87596L2.14595 9.1224L7.28751 10.6075C6.66539 11.4094 6.21429 12.2518 5.94743 13.1251H0V16.8749H5.94756C6.21441 17.7484 6.66551 18.5907 7.28763 19.393L2.14608 20.8761L5.89624 24.1242L11.0306 22.643C12.122 23.3205 13.3596 23.9392 14.7144 24.4869L11.7555 27.0521L18.2525 28.9269L21.2188 26.3581C22.8226 26.6695 24.5072 26.8928 26.2504 27.0282V30H33.7502V27.0282C35.5006 26.8929 37.1858 26.6695 38.7891 26.3581L41.7554 28.9269L48.2527 27.0521L45.2864 24.4869C46.6483 23.9392 47.8787 23.3205 48.978 22.641L54.1046 24.1224L57.8548 20.8761L52.7195 19.393C53.3429 18.5907 53.7889 17.7484 54.0609 16.8749H60ZM30.0001 23.4377C20.6836 23.4377 13.1248 19.6585 13.1248 15C13.1248 10.3401 20.6836 6.56257 30.0001 6.56257C39.3165 6.56257 46.8756 10.3401 46.8756 15C46.8756 19.6585 39.3165 23.4377 30.0001 23.4377Z" fill="#F57CFF"/>
<path d="M16.5301 12.58H43.153V37H16.5301V12.58Z" fill="black"/>
<path d="M35.1963 24.4735L38.9588 16.8217C39.0665 16.6029 39.2733 16.4795 39.4895 16.5051C39.7045 16.5316 39.8858 16.7036 39.9521 16.9438L39.9693 17.0503C39.9867 17.1134 39.9835 17.1793 39.9835 17.2455V30.3349L36.095 26.9244L35.1963 24.4735ZM29.6626 32.644H38.9073C38.994 32.644 39.074 32.559 39.1469 32.559C39.147 32.559 39.147 32.559 39.1471 32.559C39.6129 32.3864 39.7757 31.7247 39.354 31.3561L35.3547 27.8593C35.2667 27.7823 35.1989 27.6839 35.1577 27.573L34.5183 25.8522L30.3062 14.5152C30.281 14.4471 30.247 14.3879 30.2081 14.3351C30.1242 14.2212 30.0129 14.1433 29.8908 14.1004C29.8802 14.0967 29.87 14.0917 29.8592 14.0885C29.8438 14.084 29.828 14.0817 29.8124 14.0783C29.7956 14.0745 29.7788 14.0696 29.7617 14.0671C29.745 14.0648 29.7281 14.0647 29.7113 14.0635C29.695 14.0624 29.6788 14.06 29.6624 14.06C29.6461 14.06 29.63 14.0624 29.6136 14.0635C29.5968 14.0647 29.5799 14.0647 29.5631 14.067C29.5527 14.0686 29.5426 14.0718 29.5323 14.0738C29.3466 14.1092 29.1733 14.2197 29.0678 14.4082C29.0492 14.4415 29.0327 14.477 29.0186 14.5149L24.1674 27.5636C24.1262 27.6743 24.0587 27.7725 23.971 27.8493L19.9678 31.3566C19.5467 31.7255 19.7096 32.3866 20.1752 32.5591C20.1753 32.5591 20.1754 32.5591 20.1754 32.5592C20.2483 32.5862 20.3284 32.6441 20.4151 32.6441H29.6626V32.644ZM23.206 26.9151L24.1548 24.3795L20.4447 16.822C20.3332 16.5948 20.1157 16.4704 19.8938 16.5084C19.672 16.5462 19.4933 16.7384 19.442 16.9932L19.4088 17.0998C19.3991 17.1475 19.3825 17.1965 19.3825 17.2456V30.2543L23.206 26.9151Z" fill="#F57CFF"/>
</svg>
