<svg width="65" height="65" viewBox="0 0 65 65" fill="none" xmlns="http://www.w3.org/2000/svg">
<path d="M4.875 0C2.18664 0 0 2.7333 0 6.09375V14.2188C0 15.341 0.727187 16.25 1.625 16.25H9.75V6.09375C9.75 2.7333 7.56336 0 4.875 0ZM26 52.3771V44.6875H55.25V12.1875C55.25 5.4666 50.8767 0 45.5 0H11.3334C12.3642 1.70244 13 3.79844 13 6.09375V52.8125C13 57.7472 16.5191 61.6548 20.5918 60.8258C23.788 60.1758 26 56.4256 26 52.3771ZM29.25 48.75V52.8125C29.25 59.5321 24.8767 65 19.5 65H53.625C59.9077 65 65 58.6346 65 50.7812C65 49.659 64.2728 48.75 63.375 48.75H29.25Z" fill="#F57CFF"/>
</svg>
