<svg width="65" height="65" viewBox="0 0 65 65" fill="none" xmlns="http://www.w3.org/2000/svg">
<path d="M21.4732 36.5625H15.6696C14.7121 36.5625 13.9286 35.877 13.9286 35.0391V29.9609C13.9286 29.123 14.7121 28.4375 15.6696 28.4375H21.4732C22.4308 28.4375 23.2143 29.123 23.2143 29.9609V35.0391C23.2143 35.877 22.4308 36.5625 21.4732 36.5625ZM37.1429 35.0391V29.9609C37.1429 29.123 36.3594 28.4375 35.4018 28.4375H29.5982C28.6406 28.4375 27.8571 29.123 27.8571 29.9609V35.0391C27.8571 35.877 28.6406 36.5625 29.5982 36.5625H35.4018C36.3594 36.5625 37.1429 35.877 37.1429 35.0391ZM51.0714 35.0391V29.9609C51.0714 29.123 50.2879 28.4375 49.3304 28.4375H43.5268C42.5692 28.4375 41.7857 29.123 41.7857 29.9609V35.0391C41.7857 35.877 42.5692 36.5625 43.5268 36.5625H49.3304C50.2879 36.5625 51.0714 35.877 51.0714 35.0391ZM37.1429 47.2266V42.1484C37.1429 41.3105 36.3594 40.625 35.4018 40.625H29.5982C28.6406 40.625 27.8571 41.3105 27.8571 42.1484V47.2266C27.8571 48.0645 28.6406 48.75 29.5982 48.75H35.4018C36.3594 48.75 37.1429 48.0645 37.1429 47.2266ZM23.2143 47.2266V42.1484C23.2143 41.3105 22.4308 40.625 21.4732 40.625H15.6696C14.7121 40.625 13.9286 41.3105 13.9286 42.1484V47.2266C13.9286 48.0645 14.7121 48.75 15.6696 48.75H21.4732C22.4308 48.75 23.2143 48.0645 23.2143 47.2266ZM51.0714 47.2266V42.1484C51.0714 41.3105 50.2879 40.625 49.3304 40.625H43.5268C42.5692 40.625 41.7857 41.3105 41.7857 42.1484V47.2266C41.7857 48.0645 42.5692 48.75 43.5268 48.75H49.3304C50.2879 48.75 51.0714 48.0645 51.0714 47.2266ZM65 14.2188V58.9062C65 62.2705 61.8806 65 58.0357 65H6.96429C3.11942 65 0 62.2705 0 58.9062V14.2188C0 10.8545 3.11942 8.125 6.96429 8.125H13.9286V1.52344C13.9286 0.685547 14.7121 0 15.6696 0H21.4732C22.4308 0 23.2143 0.685547 23.2143 1.52344V8.125H41.7857V1.52344C41.7857 0.685547 42.5692 0 43.5268 0H49.3304C50.2879 0 51.0714 0.685547 51.0714 1.52344V8.125H58.0357C61.8806 8.125 65 10.8545 65 14.2188ZM58.0357 58.1445V20.3125H6.96429V58.1445C6.96429 58.5635 7.35603 58.9062 7.83482 58.9062H57.1652C57.644 58.9062 58.0357 58.5635 58.0357 58.1445Z" fill="#F57CFF"/>
</svg>
