<svg width="65" height="65" viewBox="0 0 65 65" fill="none" xmlns="http://www.w3.org/2000/svg">
<path d="M50.375 44.6875H53.2188C54.0313 44.6875 54.8438 43.875 54.8438 43.0625V13.8125C54.8438 13 54.0313 12.1875 53.2188 12.1875H50.375C49.5625 12.1875 48.75 13 48.75 13.8125V43.0625C48.75 43.875 49.5625 44.6875 50.375 44.6875ZM26 44.6875H28.8437C29.6562 44.6875 30.4688 43.875 30.4688 43.0625V17.875C30.4688 17.0625 29.6562 16.25 28.8437 16.25H26C25.1875 16.25 24.375 17.0625 24.375 17.875V43.0625C24.375 43.875 25.1875 44.6875 26 44.6875V44.6875ZM38.1875 44.6875H41.0313C41.8438 44.6875 42.6562 43.875 42.6562 43.0625V26C42.6562 25.1875 41.8438 24.375 41.0313 24.375H38.1875C37.375 24.375 36.5625 25.1875 36.5625 26V43.0625C36.5625 43.875 37.375 44.6875 38.1875 44.6875V44.6875ZM62.9688 50.7812H6.09375V10.1562C6.09375 9.03398 5.18477 8.125 4.0625 8.125H2.03125C0.908984 8.125 0 9.03398 0 10.1562V52.8125C0 55.0558 1.81924 56.875 4.0625 56.875H62.9688C64.091 56.875 65 55.966 65 54.8438V52.8125C65 51.6902 64.091 50.7812 62.9688 50.7812ZM13.8125 44.6875H16.6562C17.4687 44.6875 18.2812 43.875 18.2812 43.0625V34.125C18.2812 33.3125 17.4687 32.5 16.6562 32.5H13.8125C13 32.5 12.1875 33.3125 12.1875 34.125V43.0625C12.1875 43.875 13 44.6875 13.8125 44.6875V44.6875Z" fill="#F57CFF"/>
</svg>
