<svg width="65" height="65" viewBox="0 0 65 65" fill="none" xmlns="http://www.w3.org/2000/svg">
<path d="M63.7503 0.0177126L53.7115 1.91921C52.4277 2.16244 51.2469 2.78661 50.3229 3.71057L21.1158 32.9181L25.4354 37.2377L47.3544 15.3184C47.997 14.676 49.0383 14.676 49.6809 15.3183C50.3232 15.9611 50.323 17.0022 49.6809 17.6446L27.7618 39.5639L32.0814 43.8834L61.2886 14.6759C62.2126 13.7519 62.8367 12.5712 63.0799 11.2873L64.9813 1.24849C65.0462 0.906138 64.9374 0.554141 64.6912 0.307636C64.4449 0.0615687 64.0926 -0.0469867 63.7503 0.0177126V0.0177126Z" fill="#F57CFF"/>
<path d="M8.02758 29.6416L5.91188 31.7575C4.12713 33.5423 4.64955 36.5682 6.94664 37.6419L16.2753 42.0027C14.0412 44.2368 12.1595 46.1185 9.52933 48.7487C7.0125 48.331 4.33843 49.0907 2.39709 51.032C-0.798272 54.2274 -0.798239 59.4083 2.39716 62.6036C5.59256 65.799 10.7734 65.7989 13.9687 62.6035C15.9103 60.662 16.6698 57.9879 16.2519 55.4713C18.8826 52.8406 20.7632 50.96 22.998 48.7252L27.3588 58.0538C28.4286 60.3423 31.4541 60.8777 33.2432 59.0885L35.3589 56.9728C36.7835 55.5481 36.7835 53.2383 35.3589 51.8137L13.1867 29.6416C11.762 28.2169 9.45222 28.2169 8.02758 29.6416V29.6416Z" fill="#F57CFF"/>
</svg>
